<svg width="102" height="51" viewBox="0 0 1017 512" version="1.1" xmlns="http://www.w3.org/2000/svg"><g stroke="none" stroke-width="1" fill="none" fill-rule="evenodd"><path d="M502.3 250.8c0 77.6-35.2 146.9-90.6 193V300.6h-33.3v166.6c-37.2 21.9-80.6 34.4-126.9 34.4C112.9 501.6.7 389.3.7 250.8c0-2.5 0-5 .1-7.5 6-5.8 13-12.3 20.7-19.4 1.7-1.6 3.4-3.2 5.1-4.9 1.8-1.6 3.7-3.2 5.5-4.9 3.6-3.4 7.6-6.7 11.5-10.2 7.9-6.9 16.2-14.2 25-21.3 8.7-7.3 17.9-14.4 27.3-21.5 9.5-7 19.1-14 29.1-20.5 2.5-1.6 4.9-3.3 7.4-4.9 2.6-1.5 5.1-3.1 7.6-4.6 5-3.2 10.1-6 15.1-9 2.5-1.5 5.1-2.8 7.7-4.2 2.5-1.3 5-2.7 7.6-4.1 2.5-1.4 5-2.5 7.6-3.8 2.5-1.2 5-2.5 7.5-3.7 5.1-2.3 10.1-4.5 15-6.8 5-2 9.8-4 14.6-6 4.8-1.8 9.5-3.4 14.1-5.1 2.3-1 4.6-1.7 6.8-2.4 2.3-.7 4.5-1.3 6.7-2.1 2.2-.7 4.3-1.5 6.4-2.1 2.1-.5 4.2-1.1 6.2-1.7 4.1-1.1 7.9-2.2 11.5-3.2 3.6-.9 7.1-1.7 10.3-2.5 1.6-.5 3.1-.9 4.6-1.2l2.1-.6c.8-.1 1.5-.3 2.2-.4 5.5-1.1 9.8-2.1 12.8-2.8 2.9-.7 4.5-1.2 4.5-1.2s-1.6-.4-4.5-1.2c-2.9-.8-7.2-1.9-12.7-3.2-.7-.1-1.4-.3-2.1-.4-.8-.2-1.5-.3-2.3-.4-1.6-.2-3.2-.5-4.9-.7-3.4-.5-7.2-.9-11.2-1.4-2-.3-4-.3-6.1-.4-2.2-.1-4.3-.2-6.6-.3-2.2-.1-4.5-.2-6.9-.2-2.4-.1-4.8.1-7.2.2-2.5 0-5 .2-7.6.3-2.6.2-5.2.3-7.9.6-2.6.3-5.3.7-8.1 1-2.7.4-5.5.7-8.3 1.2-5.6 1.1-11.3 2.2-17.2 3.5-5.8 1.6-11.7 3.2-17.7 5.1-5.8 2-11.8 4.1-17.8 6.4-3 1.3-5.9 2.5-8.9 3.8-3 1.3-6 2.6-8.9 4.1-2.9 1.4-5.8 3-8.8 4.4-3 1.5-5.8 3.2-8.7 4.8-2.8 1.7-5.7 3.4-8.5 5l-8.4 5.4c-11.1 7.2-21.5 15.3-31.5 23.6-9.8 8.5-19 17.2-27.4 26.2-8.4 8.9-15.9 18.1-22.7 27-5.8 7.7-11 15.3-15.6 22.6C26.3 88.5 128.5 0 251.5 0c50.7 0 97.9 15.1 137.4 41-.1.1-.1.2-.2.3-.9 1.1-1.8 2.3-2.8 3.5-.9 1.2-1.9 2.4-3 3.6-1.9 2.4-4.1 4.8-6.3 7.3-4.5 4.8-9.4 9.8-14.7 14.5-1.2 1.3-2.7 2.3-4 3.5-1.4 1.2-2.7 2.5-4.2 3.5-2.9 2.3-5.7 4.6-8.8 6.7-5.9 4.4-12.3 8.3-18.8 12.1-1.6 1-3.3 1.8-5 2.7-1.6.8-3.2 1.9-4.9 2.6-1.8.8-3.5 1.7-5.1 2.5-1.7.8-3.4 1.6-5.1 2.3-1.8.7-3.5 1.5-5.2 2.2l-2.5 1.1c-.9.3-1.8.7-2.6 1-1.8.6-3.5 1.3-5.2 1.9-.8.3-1.7.7-2.5 1-.9.3-1.8.6-2.6.9-3.5 1.1-6.8 2.3-10.2 3.3-3.3 1-6.7 1.9-9.9 2.9-3.2.9-6.4 1.6-9.5 2.5-1.6.4-3.1.8-4.6 1.2l-4.5.9c-2.9.7-5.7 1.3-8.4 2-2.7.6-5.3 1-7.7 1.6-2.4.5-4.7 1-6.8 1.5-2.1.4-4.1.7-5.9 1.1-7 1.3-11.2 2.4-11.2 2.4s4 1.3 11.2 3c1.8.4 3.8.9 5.9 1.2 2.2.4 4.6.7 7.1 1.1 2.6.4 5.3.7 8.1 1 2.9.3 5.9.4 9.1.6 1.6.1 3.2.1 4.9.2h5c3.4-.1 7-.2 10.7-.4 3.6-.3 7.4-.8 11.2-1.2 1.9-.1 3.9-.6 5.8-.9 1.9-.4 3.9-.8 5.9-1.1l3-.6c1-.2 2-.5 3-.8 2-.5 4-1 6-1.6 4.1-.9 8-2.5 12.1-3.9 2-.6 4-1.5 6-2.3 2-.9 4-1.8 6-2.6 2-.9 3.9-1.9 5.8-2.9 2-1.1 3.9-2 5.8-3.1 7.6-4.5 15-9.3 21.6-14.9 6.7-5.5 12.7-11.5 18-17.7 1.3-1.6 2.6-3.2 3.9-4.7 1.3-1.6 2.4-3.2 3.6-4.8 2.3-3.2 4.4-6.4 6.3-9.6 3.6-6.1 6.6-12 9-17.6 61 45.7 100.6 118.7 100.6 200.8z" fill="#36A1D8"/><path d="M217.3 439.5c7.5 0 14.8-1.5 21.7-4.3 6.6-2.9 12.5-6.9 17.6-12 5.1-5.2 9.1-11.1 11.8-17.6 3-7 4.5-14.2 4.5-21.7s-1.5-14.7-4.5-21.6c-2.7-6.7-6.7-12.6-11.8-17.7-5.1-5.1-11-9-17.6-11.9-6.9-2.9-14.2-4.3-21.7-4.3s-14.8 1.4-21.6 4.3c-6.7 2.9-12.6 6.8-17.7 11.9-5 5.1-9 11-11.9 17.7-2.9 6.9-4.3 14.1-4.3 21.6 0 7.5 1.4 14.7 4.3 21.7 2.9 6.5 6.9 12.4 11.9 17.6 5.1 5.1 11 9.1 17.7 12 6.8 2.8 14.1 4.3 21.6 4.3zm0-144.4c12.1 0 23.6 2.3 34.6 6.9 10.7 4.5 20.1 10.9 28.3 19 8.2 8.3 14.5 17.7 19.1 28.3 4.6 11.1 6.9 22.6 6.9 34.6v83.3h-33.3v-13.9c-7.8 6.2-16.3 11-25.6 14.3-9.6 3.5-19.6 5.2-30 5.2-12 0-23.5-2.3-34.5-7-10.7-4.5-20.1-10.8-28.4-19-8.1-8.2-14.4-17.7-19-28.3-4.6-11-6.9-22.5-6.9-34.6 0-12 2.3-23.5 6.9-34.6 4.6-10.6 10.9-20 19-28.3 8.3-8.1 17.7-14.5 28.4-19 11-4.6 22.5-6.9 34.5-6.9zM408.8 253.5c-3.8-3.8-8.4-5.7-13.7-5.7-5.4 0-10 1.9-13.8 5.7-3.8 3.8-5.7 8.4-5.7 13.8s1.9 9.9 5.7 13.7c3.8 3.8 8.4 5.7 13.8 5.7 5.3 0 9.9-1.9 13.7-5.7 3.8-3.8 5.7-8.3 5.7-13.7 0-5.4-1.9-10-5.7-13.8zM411.7 300.6v143.2c-10.4 8.6-21.5 16.5-33.3 23.4V300.6h33.3z" fill="#FFF"/><path d="M653.1 369.5c-3.1-12-9.6-21.8-19.5-29.5-10-7.7-21.4-11.6-34-11.6-7.6 0-14.9 1.4-21.7 4.3-6.7 2.9-12.6 6.8-17.6 11.9-5.1 5.2-9.1 11.1-12 17.7-2.9 6.9-4.3 14.1-4.3 21.6v83.3h-33.3v-83.3c0-12 2.3-23.5 6.9-34.6 4.6-10.6 10.9-20 19-28.3 8.3-8.1 17.7-14.5 28.4-19 11-4.6 22.5-6.9 34.6-6.9 20.3 0 38.5 6.2 54.5 18.7 7.6 5.9 14 12.9 19.3 20.8 5.5 8.2 9.5 16.9 12 26.3l-32.3 8.6zM732.8 267.3h33.4v199.9h-33.4V267.3zM1016.1 300.6v166.6c0 15.9-4 30.8-11.9 44.5L975.3 495c5-8.5 7.5-17.8 7.5-27.8v-13.9c-.6.4-1.1.8-1.6 1.1-13.3 10.3-28.3 16.3-45.1 18-2.9.2-5.9.4-8.9.4-20.1 0-38.2-6.1-54-18.4-10.3-7.8-18.4-17.4-24.4-28.8-7-13-10.4-26.9-10.4-41.7v-83.3h33.3v83.3c0 4.4.5 8.6 1.5 12.8 2.7 11.5 8.4 21.1 17.2 28.9 10.6 9.2 22.9 13.9 36.8 13.9 14 0 26.2-4.7 36.7-13.9 8.9-7.8 14.7-17.4 17.3-28.9 1.1-4.2 1.6-8.4 1.6-12.8v-83.3h33.3z" fill="#36A1D8"/><path d="M303.3 68.2s-1.6.5-4.5 1.2c-3 .7-7.3 1.7-12.8 2.8-.7.1-1.4.3-2.2.4l-2.1.6c-1.5.3-3 .7-4.6 1.2-3.2.8-6.7 1.6-10.3 2.5-3.6 1-7.4 2.1-11.5 3.2-2 .6-4.1 1.2-6.2 1.7-2.1.6-4.2 1.4-6.4 2.1-2.2.8-4.4 1.4-6.7 2.1-2.2.7-4.5 1.4-6.8 2.4-4.6 1.7-9.3 3.3-14.1 5.1-4.8 2-9.6 4-14.6 6-4.9 2.3-9.9 4.5-15 6.8-2.5 1.2-5 2.5-7.5 3.7-2.6 1.3-5.1 2.4-7.6 3.8-2.6 1.4-5.1 2.8-7.6 4.1-2.6 1.4-5.2 2.7-7.7 4.2-5 3-10.1 5.8-15.1 9-2.5 1.5-5 3.1-7.6 4.6-2.5 1.6-4.9 3.3-7.4 4.9-10 6.5-19.6 13.5-29.1 20.5-9.4 7.1-18.6 14.2-27.3 21.5-8.8 7.1-17.1 14.4-25 21.3-3.9 3.5-7.9 6.8-11.5 10.2-1.8 1.7-3.7 3.3-5.5 4.9-1.7 1.7-3.4 3.3-5.1 4.9C13.8 231 6.8 237.5.8 243.3c.4-13 1.7-25.7 4-38.1 4.6-7.3 9.8-14.9 15.6-22.6 6.8-8.9 14.3-18.1 22.7-27 8.4-9 17.6-17.7 27.4-26.2 10-8.3 20.4-16.4 31.5-23.6l8.4-5.4c2.8-1.6 5.7-3.3 8.5-5 2.9-1.6 5.7-3.3 8.7-4.8 3-1.4 5.9-3 8.8-4.4 2.9-1.5 5.9-2.8 8.9-4.1 3-1.3 5.9-2.5 8.9-3.8 6-2.3 12-4.4 17.8-6.4 6-1.9 11.9-3.5 17.7-5.1 5.9-1.3 11.6-2.4 17.2-3.5 2.8-.5 5.6-.8 8.3-1.2 2.8-.3 5.5-.7 8.1-1 2.7-.3 5.3-.4 7.9-.6 2.6-.1 5.1-.3 7.6-.3 2.4-.1 4.8-.3 7.2-.2 2.4 0 4.7.1 6.9.2 2.3.1 4.4.2 6.6.3 2.1.1 4.1.1 6.1.4 4 .5 7.8.9 11.2 1.4 1.7.2 3.3.5 4.9.7.8.1 1.5.2 2.3.4.7.1 1.4.3 2.1.4 5.5 1.3 9.8 2.4 12.7 3.2 2.9.8 4.5 1.2 4.5 1.2zM401.7 50c-2.4 5.6-5.4 11.5-9 17.6-1.9 3.2-4 6.4-6.3 9.6-1.2 1.6-2.3 3.2-3.6 4.8-1.3 1.5-2.6 3.1-3.9 4.7-5.3 6.2-11.3 12.2-18 17.7-6.6 5.6-14 10.4-21.6 14.9-1.9 1.1-3.8 2-5.8 3.1-1.9 1-3.8 2-5.8 2.9-2 .8-4 1.7-6 2.6-2 .8-4 1.7-6 2.3-4.1 1.4-8 3-12.1 3.9-2 .6-4 1.1-6 1.6-1 .3-2 .6-3 .8l-3 .6c-2 .3-4 .7-5.9 1.1-1.9.3-3.9.8-5.8.9-3.8.4-7.6.9-11.2 1.2-3.7.2-7.3.3-10.7.4h-5c-1.7-.1-3.3-.1-4.9-.2-3.2-.2-6.2-.3-9.1-.6-2.8-.3-5.5-.6-8.1-1-2.5-.4-4.9-.7-7.1-1.1-2.1-.3-4.1-.8-5.9-1.2-7.2-1.7-11.2-3-11.2-3s4.2-1.1 11.2-2.4c1.8-.4 3.8-.7 5.9-1.1 2.1-.5 4.4-1 6.8-1.5 2.4-.6 5-1 7.7-1.6 2.7-.7 5.5-1.3 8.4-2l4.5-.9c1.5-.4 3-.8 4.6-1.2 3.1-.9 6.3-1.6 9.5-2.5 3.2-1 6.6-1.9 9.9-2.9 3.4-1 6.7-2.2 10.2-3.3.8-.3 1.7-.6 2.6-.9.8-.3 1.7-.7 2.5-1 1.7-.6 3.4-1.3 5.2-1.9.8-.3 1.7-.7 2.6-1l2.5-1.1c1.7-.7 3.4-1.5 5.2-2.2 1.7-.7 3.4-1.5 5.1-2.3 1.6-.8 3.3-1.7 5.1-2.5 1.7-.7 3.3-1.8 4.9-2.6 1.7-.9 3.4-1.7 5-2.7 6.5-3.8 12.9-7.7 18.8-12.1 3.1-2.1 5.9-4.4 8.8-6.7 1.5-1 2.8-2.3 4.2-3.5 1.3-1.2 2.8-2.2 4-3.5 5.3-4.7 10.2-9.7 14.7-14.5 2.2-2.5 4.4-4.9 6.3-7.3 1.1-1.2 2.1-2.4 3-3.6 1-1.2 1.9-2.4 2.8-3.5.1-.1.1-.2.2-.3 4.4 2.9 8.6 5.9 12.8 9zM420.3 228.8c1.7 1.7 2.1 4.3 1.3 6.5-1.1 2.7-3.9 4.2-6.7 3.9-3.5-.5-5.6-4-8.5-5.7-3.2-1.9-6.8-3-10.6-3.3-6.5-.4-12.6 1.9-17.1 5.9-.3.3-.6.5-.9.8-2.1 2-5.3 2.3-7.7.7-3.3-2.2-3.7-6.9-.9-9.7 7-6.8 16.8-10.8 27.4-10.1 9.3.6 17.6 4.7 23.7 11z" fill="#FFF"/><path d="M439.4 223c-2.7 1.7-6.2 1.1-8.2-1.3-.4-.6-.9-1.1-1.3-1.6-7.9-8.9-19.1-14.8-31.9-15.6-12.9-.8-24.8 3.7-33.7 11.5-1.6 1.5-3.1 3-4.5 4.7-2.1 2.4-5.6 2.8-8.2 1.1-3.1-2.1-3.8-6.4-1.4-9.2 11.6-13.6 29.3-21.7 48.5-20.6 17.2 1.1 32.3 9.5 42.3 21.9 2.3 2.9 1.5 7.2-1.6 9.1z" fill="#FFF"/><path d="M461.6 211.6c-2.8 1.7-6.3 1-8.3-1.6-1.2-1.7-2.5-3.3-3.9-4.8-12.5-14.1-30.3-23.5-50.5-24.7-20.3-1.3-39.1 5.8-53.2 18.3-3.3 2.9-6.4 6.2-9.1 9.7-2 2.5-5.6 3-8.3 1.2-3-2-3.7-6.2-1.4-9.1 16.8-21.3 43.5-34.3 72.7-32.5 26.3 1.6 49.1 14.9 63.7 34.5 2.1 2.9 1.4 7-1.7 9z" fill="#FFF"/><text font-family="Lato-Regular, Lato" font-size="160" font-weight="normal" fill="#F26B6B"><tspan x="702" y="242"></tspan></text></g></svg>
